#!OML:ASF E:\Steps\Project 1\Capture day 1\Session 2\Subject.ASF
:FULLY-SPECIFIED
:DEGREES
289
root 10.2971 15.4925 12.1139 -135.381 -2.33163 154.518
lowerback -2.41097 -5.27499 3.73869
upperback 4.05941 -7.40328 -0.401438
thorax 5.03775 -3.5798 -2.96144
lowerneck -8.04696 -5.65044 2.418
upperneck 8.19096 -7.41483 -3.44085
head 3.88523 -3.71042 -1.99734
rclavicle -1.90833e-014 6.83819e-014
rhumerus -13.6157 19.0105 -51.6914
rradius 61.3744
rwrist -16.7454
rhand -4.6147 -56.2907
rfingers 7.12502
rthumb 21.1636 -445.156
lclavicle -1.90833e-014 6.83819e-014
lhumerus -6.52737 -31.7007 38.278
lradius 51.9319
lwrist 4.82311
lhand -24.0306 -16.8448
lfingers 7.12502
lthumb 2.44776 13.1209
rfemur -81.9245 -27.7188 -2.02372
rtibia 59.3923
rfoot -29.0014 -11.9189
rtoes -17.2317
lfemur -22.766 -16.2648 2.1651
ltibia 20.0186
lfoot 12.4397 20.0584
ltoes -6.73049
290
root 10.3449 15.5233 12.0775 -135.398 -2.25304 154.733
lowerback -2.47993 -4.96794 4.08884
upperback 4.23179 -7.01791 -0.602476
thorax 5.2219 -3.36642 -3.35837
lowerneck -8.58946 -5.7415 3.33648
upperneck 8.5028 -7.63078 -3.78181
head 4.0479 -3.80654 -2.32028
rclavicle 2.38542e-014 -4.29375e-014
rhumerus -14.136 17.348 -52.1552
rradius 61.3875
rwrist -16.0035
rhand -5.26755 -55.7454
rfingers 7.12502
rthumb 20.5363 -444.679
lclavicle 2.38542e-014 -4.29375e-014
lhumerus -5.47627 -32.4037 37.7949
lradius 52.0973
lwrist 4.9801
lhand -24.0683 -16.5476
lfingers 7.12502
lthumb 2.41136 13.4185
rfemur -81.6248 -27.3042 -1.67265
rtibia 58.9041
rfoot -28.9646 -11.7908
rtoes -17.6516
lfemur -23.3308 -15.521 2.02656
ltibia 21.3667
lfoot 12.1646 20.4305
ltoes -5.85595
291
root 10.3942 15.5565 12.0471 -135.359 -2.04607 154.944
lowerback -2.58752 -5.06059 4.05062
upperback 4.17727 -7.14716 -0.376516
thorax 5.24822 -3.43322 -3.11977
lowerneck -8.47529 -5.57219 2.76052
upperneck 8.68724 -7.2958 -3.89362
head 4.12265 -3.65627 -2.24121
rclavicle 3.02153e-014 -4.77083e-014
rhumerus -12.8771 17.3506 -51.7036
rradius 60.8616
rwrist -15.6441
rhand -5.35358 -55.6107
rfingers 7.12502
rthumb 20.4537 -444.553
lclavicle 3.02153e-014 -4.77083e-014
lhumerus -6.26514 -32.1503 38.6218
lradius 52.3528
lwrist 4.79598
lhand -23.8778 -16.1765
lfingers 7.12502
lthumb 2.5954 13.7874
rfemur -81.5489 -26.8189 -1.31678
rtibia 58.5841
rfoot -28.9869 -11.7522
rtoes -17.7808
lfemur -24.1406 -14.4794 1.72453
ltibia 23.1318
lfoot 11.7699 20.4376
ltoes -8.20515
292
root 10.4417 15.5881 12.0168 -135.383 -1.72013 155.02
lowerback -2.55933 -5.13448 3.71786
upperback 4.03896 -7.22245 -0.190083
thorax 5.14308 -3.48907 -2.73983
lowerneck -7.98264 -5.35577 2.13209
upperneck 8.62981 -6.9081 -3.86942
head 4.04215 -3.47587 -2.0777
rclavicle 1.59028e-014 4.92986e-014
rhumerus -12.2884 17.4493 -51.4933
rradius 60.7506
rwrist -16.1073
rhand -3.74415 -56.7511
rfingers 7.12502
rthumb 21.9996 -445.52
lclavicle 1.59028e-014 4.92986e-014
lhumerus -7.13535 -31.9453 39.5622
lradius 52.6546
lwrist 4.68514
lhand -23.6667 -15.9441
lfingers 7.12502
lthumb 2.79926 14.0173
rfemur -81.451 -26.3309 -1.24252
rtibia 58.354
rfoot -28.9785 -11.8304
rtoes -17.9349
lfemur -24.9644 -13.2995 1.11236
ltibia 25.1346
lfoot 10.6021 20.5202
ltoes -10.2451
293
root 10.4854 15.6197 11.9866 -135.442 -1.50947 155.182
lowerback -2.58092 -5.14149 3.60163
upperback 3.95933 -7.22232 -0.0931286
thorax 5.09748 -3.49525 -2.57459
lowerneck -7.63881 -5.32648 1.60066
upperneck 8.40502 -6.84524 -3.49695
head 3.92744 -3.44429 -1.83431
rclavicle 1.74931e-014 7.95139e-015
rhumerus -11.9416 17.174 -51.5298
rradius 60.7115
rwrist -16.2737
rhand -4.56454 -56.4457
rfingers 7.12502
rthumb 21.2118 -445.305
lclavicle 1.74931e-014 7.95139e-015
lhumerus -7.63935 -32.0946 40.1564
lradius 52.9202
lwrist 4.84588
lhand -23.192 -16.0043
lfingers 7.12502
lthumb 3.25768 13.9506
rfemur -81.1881 -25.8564 -1.08051
rtibia 57.9461
rfoot -28.9154 -11.729
rtoes -17.9472
lfemur -25.7709 -12.093 0.601556
ltibia 27.1955
lfoot 8.49885 21.0678
ltoes -7.7583
294
root 10.5293 15.6507 11.9589 -135.407 -1.31987 155.503
lowerback -2.67053 -4.70828 3.82143
upperback 4.16111 -6.6613 -0.36193
thorax 5.34155 -3.19772 -2.96242
lowerneck -8.68633 -5.39556 2.76586
upperneck 8.84152 -7.07317 -3.8178
head 4.23228 -3.54356 -2.2208
rclavicle -3.97569e-014 -5.725e-014
rhumerus -12.2485 15.2638 -52.1455
rradius 60.7774
rwrist -16.1085
rhand -4.69203 -56.955
rfingers 7.12502
rthumb 21.0893 -445.828
lclavicle -3.97569e-014 -5.725e-014
lhumerus -6.2811 -33.0696 39.4169
lradius 53.1447
lwrist 5.17073
lhand -22.5131 -15.8269
lfingers 7.12502
lthumb 3.91329 14.1169
rfemur -81.0508 -25.3313 -0.662398
rtibia 57.4931
rfoot -28.8444 -11.4173
rtoes -17.5058
lfemur -26.7045 -10.9517 0.276745
ltibia 29.2842
lfoot 6.4407 21.7621
ltoes -5.23029
295
root 10.5758 15.6817 11.9296 -135.495 -1.15847 155.801
lowerback -2.6475 -4.72526 3.6923
upperback 4.04639 -6.67139 -0.18796
thorax 5.24105 -3.21233 -2.70428
lowerneck -8.44027 -5.46931 2.43493
upperneck 8.88785 -7.12718 -3.70751
head 4.21307 -3.5714 -2.11843
rclavicle -4.77083e-015 1.59028e-014
rhumerus -12.0979 15.106 -52.2413
rradius 60.9973
rwrist -16.3112
rhand -4.3049 -57.5527
rfingers 7.12502
rthumb 21.4611 -446.384
lclavicle -4.77083e-015 1.59028e-014
lhumerus -7.16057 -33.1453 40.284
lradius 53.4733
lwrist 4.92766
lhand -22.4054 -15.453
lfingers 7.12502
lthumb 4.01727 14.4889
rfemur -80.7774 -24.808 -0.279513
rtibia 57.0551
rfoot -28.7857 -11.1434
rtoes -16.8181
lfemur -27.5685 -10.0705 -0.0798257
ltibia 31.4274
lfoot 4.71579 22.3913
ltoes -6.66969
296
root 10.6218 15.7143 11.8995 -135.723 -1.01678 156.1
lowerback -2.52916 -4.6457 3.62414
upperback 4.07674 -6.56231 -0.131659
thorax 5.22679 -3.16365 -2.59383
lowerneck -8.6618 -5.403 2.21609
upperneck 9.70489 -6.99067 -3.70374
head 4.10016 -3.52258 -1.89616
rclavicle -3.33958e-014 4.29375e-014
rhumerus -11.9828 14.6277 -52.4952
rradius 61.0133
rwrist -16.3066
rhand -4.20575 -57.4026
rfingers 7.12502
rthumb 21.5564 -446.223
lclavicle -3.33958e-014 4.29375e-014
lhumerus -7.63145 -33.1911 40.9397
lradius 53.7189
lwrist 4.72742
lhand -22.6889 -15.4965
lfingers 7.12502
lthumb 3.74355 14.4504
rfemur -80.3442 -24.2432 0.0384804
rtibia 56.6002
rfoot -28.7662 -10.777
rtoes -15.7666
lfemur -28.2595 -9.42031 -0.437809
ltibia 33.4722
lfoot 2.86307 22.9092
ltoes -4.97498
297
root 10.6646 15.7476 11.8685 -136.038 -0.82332 156.462
lowerback -2.45433 -4.44395 3.65604
upperback 4.25924 -6.30501 -0.224884
thorax 5.37984 -3.03204 -2.69734
lowerneck -8.73867 -5.14377 2.85698
upperneck 9.75237 -6.68046 -4.15543
head 4.09841 -3.3725 -2.12092
rclavicle -2.38542e-014 -1.08139e-013
rhumerus -11.8843 13.7616 -53.0003
rradius 60.8523
rwrist -16.1726
rhand -4.36634 -56.7423
rfingers 7.12502
rthumb 21.4021 -445.58
lclavicle -2.38542e-014 -1.08139e-013
lhumerus -7.48659 -33.5003 41.0404
lradius 53.8282
lwrist 4.84434
lhand -22.6353 -15.9589
lfingers 7.12502
lthumb 3.79524 13.9871
rfemur -79.8651 -23.6259 0.431903
rtibia 56.1665
rfoot -28.7568 -10.3188
rtoes -15.0901
lfemur -28.8117 -8.85723 -0.794674
ltibia 35.4085
lfoot 1.04345 23.338
ltoes -1.92432
298
root 10.7056 15.7796 11.8376 -136.307 -0.679457 156.792
lowerback -2.55946 -4.76285 3.42088
upperback 4.16539 -6.73308 0.128514
thorax 5.38035 -3.25937 -2.23492
lowerneck -8.07825 -5.08854 1.52126
upperneck 9.37411 -6.48246 -3.52314
head 4.37675 -3.26187 -1.86145
rclavicle 1.27222e-014 -4.77083e-015
rhumerus -11.0268 14.7159 -53.0101
rradius 60.7541
rwrist -16.3524
rhand -4.70176 -56.2837
rfingers 7.12502
rthumb 21.0799 -445.158
lclavicle 1.27222e-014 -4.77083e-015
lhumerus -9.45427 -32.8375 42.5487
lradius 53.9251
lwrist 4.63186
lhand -22.3854 -16.1124
lfingers 7.12502
lthumb 4.03663 13.8291
rfemur -79.3736 -23.1057 0.84963
rtibia 55.7369
rfoot -28.7836 -9.95979
rtoes -14.9714
lfemur -29.5756 -8.42668 -1.15406
ltibia 37.5678
lfoot -0.493194 23.7275
ltoes -4.09455
299
root 10.7451 15.8108 11.8098 -136.497 -0.545255 157.184
lowerback -2.57461 -4.47603 3.56219
upperback 4.3618 -6.3655 -0.0775435
thorax 5.57943 -3.06452 -2.51601
lowerneck -8.36538 -4.80924 2.47275
upperneck 9.21359 -6.1934 -4.05178
head 4.33961 -3.11943 -2.19936
rclavicle 9.06458e-014 0
rhumerus -11.1371 13.6471 -53.6486
rradius 60.7462
rwrist -16.1818
rhand -4.89567 -56.3383
rfingers 7.12502
rthumb 20.8937 -445.233
lclavicle 9.06458e-014 0
lhumerus -9.04347 -33.1307 42.4857
lradius 54.0502
lwrist 4.53287
lhand -21.9248 -15.8029
lfingers 7.12502
lthumb 4.48134 14.1297
rfemur -78.9572 -22.5571 1.32787
rtibia 55.2797
rfoot -28.7854 -9.58127
rtoes -14.9448
lfemur -30.5014 -8.1066 -1.42268
ltibia 39.8103
lfoot -1.88136 23.9546
ltoes -6.93641
300
root 10.7841 15.8428 11.7795 -136.774 -0.28997 157.613
lowerback -2.51641 -4.49653 3.40727
upperback 4.24198 -6.37564 0.0346913
thorax 5.44748 -3.0805 -2.30392
lowerneck -7.73076 -4.75005 2.13274
upperneck 9.11125 -6.06993 -3.91584
head 4.19376 -3.05677 -2.05588
rclavicle -3.18055e-015 -7.95139e-015
rhumerus -11.0775 14.0551 -53.9619
rradius 60.8804
rwrist -16.2325
rhand -4.58034 -56.6775
rfingers 7.12502
rthumb 21.1966 -445.539
lclavicle -3.18055e-015 -7.95139e-015
lhumerus -10.2341 -32.9697 43.4588
lradius 54.2828
lwrist 4.36151
lhand -21.7207 -15.5608
lfingers 7.12502
lthumb 4.67851 14.3675
rfemur -78.5279 -21.877 1.75907
rtibia 54.8311
rfoot -28.7054 -9.10762
rtoes -14.5861
lfemur -31.2348 -7.79008 -1.78047
ltibia 41.8762
lfoot -3.56489 24.2612
ltoes -5.31024
301
root 10.8243 15.8757 11.7476 -137.085 -0.0510184 157.974
lowerback -2.47367 -4.54342 3.16353
upperback 4.17764 -6.4247 0.158433
thorax 5.39192 -3.11856 -2.03912
lowerneck -6.65691 -4.37731 1.30434
upperneck 7.9013 -5.60571 -3.04586
head 3.61531 -2.82259 -1.51888
rclavicle 4.29375e-014 2.38542e-014
rhumerus -10.9248 14.4117 -54.3135
rradius 60.954
rwrist -16.2337
rhand -4.25341 -56.9973
rfingers 7.12502
rthumb 21.5106 -445.823
lclavicle 4.29375e-014 2.38542e-014
lhumerus -11.3707 -32.7537 44.4549
lradius 54.397
lwrist 4.11127
lhand -22.0409 -15.3831
lfingers 7.12502
lthumb 4.36926 14.5518
rfemur -77.9806 -21.1675 2.02897
rtibia 54.3319
rfoot -28.6348 -8.7648
rtoes -13.9294
lfemur -31.937 -7.50918 -2.23064
ltibia 43.8202
lfoot -4.95818 24.1576
ltoes 6.45737
302
root 10.8628 15.9132 11.7206 -137.412 0.109584 158.277
lowerback -2.38378 -4.2948 3.17298
upperback 4.34455 -6.09536 -0.065363
thorax 5.50842 -2.95122 -2.25667
lowerneck -7.22525 -4.54109 1.72244
upperneck 8.36478 -5.89949 -2.79815
head 3.87752 -2.94881 -1.55807
rclavicle 4.45278e-014 -9.54166e-015
rhumerus -11.2 13.5981 -55.0477
rradius 60.9635
rwrist -16.079
rhand -4.17513 -56.8833
rfingers 7.12502
rthumb 21.5858 -445.7
lclavicle 4.45278e-014 -9.54166e-015
lhumerus -10.7378 -33.1472 44.4752
lradius 53.9754
lwrist 4.02933
lhand -22.0922 -15.2398
lfingers 7.12502
lthumb 4.31978 14.6961
rfemur -77.2451 -20.5498 2.25038
rtibia 53.6706
rfoot -28.5495 -8.58821
rtoes -13.8225
lfemur -32.711 -7.35694 -2.71411
ltibia 45.6696
lfoot -5.9088 24.2776
ltoes 8.15048
303
root 10.8993 15.9507 11.6954 -137.619 0.32567 158.623
lowerback -2.49931 -4.11933 3.16124
upperback 4.46703 -5.86699 -0.22361
thorax 5.70121 -2.8318 -2.41705
lowerneck -7.80774 -4.82975 2.36623
upperneck 8.73048 -6.36473 -2.86317
head 4.08775 -3.16322 -1.75011
rclavicle 1.27222e-014 0
rhumerus -11.3624 13.2185 -55.6637
rradius 61.1056
rwrist -16.1668
rhand -4.4346 -56.0703
rfingers 7.12502
rthumb 21.3366 -444.916
lclavicle 1.27222e-014 0
lhumerus -10.7288 -33.4337 44.4228
lradius 54.0153
lwrist 4.16359
lhand -21.7988 -15.0148
lfingers 7.12502
lthumb 4.60305 14.9151
rfemur -76.686 -19.9432 2.58456
rtibia 53.0192
rfoot -28.3779 -8.44061
rtoes -14.2534
lfemur -33.6425 -7.14275 -3.20444
ltibia 47.5456
lfoot -6.60007 24.2723
ltoes 5.41866
